<?xml version="1.0" standalone="no"?>
<!DOCTYPE svg PUBLIC "-//W3C//DTD SVG 1.1//EN" "http://www.w3.org/Graphics/SVG/1.1/DTD/svg11.dtd" >
<svg xmlns="http://www.w3.org/2000/svg">
<metadata>Generated by IcoMoon</metadata>
<defs>
<font id="icomoon" horiz-adv-x="1024">
<font-face units-per-em="1024" ascent="1024" descent="0" />
<missing-glyph horiz-adv-x="1024" />
<glyph unicode="&#x20;" horiz-adv-x="0" d="" />
<glyph unicode="&#xe600;" glyph-name="succeed2" d="M954.891 518.906c0-245.966-199.396-445.373-445.373-445.373-245.955 0-445.373 199.407-445.373 445.373s199.417 445.373 445.373 445.373c245.975 0 445.373-199.407 445.373-445.373zM685.39 684.864l-259.992-290.606-90.446 127.456c-5.772 8.205-17.2 10.142-25.385 4.319-8.205-5.812-10.142-17.189-4.309-25.414l103.673-146.078c3.182-4.517 8.284-7.325 13.799-7.651 0.355 0 0.711-0.020 1.048-0.020 5.16 0 10.102 2.204 13.562 6.069l275.175 307.637c6.703 7.483 6.069 19.009-1.423 25.73-7.534 6.693-19.040 6.070-25.701-1.442z" />
<glyph unicode="&#xe601;" glyph-name="failed" d="M516.912 963.592c-248.498 0-449.977-201.47-449.977-449.977 0-248.509 201.48-449.976 449.977-449.976 248.519 0 449.977 201.468 449.977 449.976s-201.458 449.977-449.977 449.977zM731.818 334.521l-35.814-35.814-179.093 179.094-179.093-179.094-35.814 35.814 179.093 179.094-179.093 179.094 35.814 35.814 179.093-179.094 179.094 179.094 35.814-35.814-179.094-179.094 179.093-179.094z" />
<glyph unicode="&#xe602;" glyph-name="delete2" d="M512.001 966.823c-248.499 0-449.978-201.47-449.978-449.977 0-248.509 201.48-449.976 449.978-449.976 248.519 0 449.977 201.468 449.977 449.976s-201.458 449.977-449.977 449.977zM787.477 491.286h-550.953v51.119h550.953v-51.119z" />
<glyph unicode="&#xe603;" glyph-name="news" d="M494.388 347.568l-320.272 199.57 15.804 26.998 331.556-210.115zM521.476 364.021l309.553 183.118-15.798 26.998-320.61-193.097zM893.605 191.882h-782.042v596.475h782.042v-596.475zM142.841 223.161h719.476v533.917h-719.476v-533.917z" />
<glyph unicode="&#xe604;" glyph-name="failed2" d="M519.126 72.821c-240.028 0-435.348 195.292-435.348 435.318 0 240.057 195.321 435.368 435.348 435.368 240.046 0 435.346-195.31 435.346-435.368 0-240.026-195.3-435.318-435.346-435.318zM519.126 910.022c-221.578 0-401.845-180.296-401.845-401.884 0-221.548 180.269-401.834 401.845-401.834 221.565 0 401.874 180.286 401.874 401.834 0 221.588-180.309 401.884-401.874 401.884zM659.388 676.492l28.047-28.047-308.594-308.594-28.047 28.047 308.594 308.594zM687.442 367.892l-28.049-28.047-308.592 308.59 28.040 28.050z" />
<glyph unicode="&#xe605;" glyph-name="succeed" d="M510.266 65.147c-246.827 0-447.624 200.8-447.624 447.598 0 246.826 200.797 447.644 447.624 447.644 246.8 0 447.627-200.819 447.627-447.644 0-246.798-200.827-447.598-447.627-447.598zM510.266 925.962c-227.834 0-413.216-185.383-413.216-413.217 0-227.799 185.383-413.168 413.216-413.168 227.817 0 413.189 185.369 413.189 413.168 0 227.834-185.372 413.217-413.189 413.217zM697.65 688.405l-261.914-292.775-91.121 128.405c-5.817 8.267-17.349 10.218-25.585 4.343-8.265-5.857-10.218-17.308-4.343-25.595l104.438-147.168c3.207-4.554 8.346-7.39 13.921-7.71 0.341 0 0.699-0.018 1.038-0.018 5.198 0 10.178 2.219 13.663 6.113l277.232 309.926c6.751 7.549 6.114 19.15-1.435 25.922-7.59 6.753-19.181 6.127-25.894-1.444z" />
<glyph unicode="&#xe606;" glyph-name="woman" d="M509.676 318.535c-176.551 0-320.189 143.647-320.189 320.209 0 176.552 143.638 320.181 320.189 320.181 176.553 0 320.19-143.628 320.19-320.181 0-176.562-143.637-320.209-320.19-320.209zM509.676 918.243c-154.124 0-279.508-125.382-279.508-279.499 0-154.137 125.383-279.528 279.508-279.528s279.51 125.392 279.51 279.528c-0.001 154.116-125.385 279.499-279.51 279.499zM489.416 349.065h40.502v-284.772h-40.502v284.772zM367.29 226.91h284.773v-40.492h-284.773v40.492z" />
<glyph unicode="&#xe607;" glyph-name="man" d="M521.523 371.459c-162.805 0-295.272 132.477-295.272 295.31 0 162.822 132.467 295.281 295.272 295.281 162.842 0 295.309-132.459 295.309-295.281 0-162.832-132.467-295.31-295.309-295.31zM521.523 924.533c-142.122 0-257.753-115.633-257.753-257.764 0-142.15 115.633-257.79 257.753-257.79 142.139 0 257.79 115.641 257.79 257.79 0 142.131-115.651 257.764-257.79 257.764zM504.744 371.478h37.517v-187.588h-37.517v187.588zM432.16 262.142l-27.287-23.877 116.669-118.022 114.939 114.61-27.629 24.996-66.59-70.426v-5.536h-37.517l-0.019 5.574z" />
<glyph unicode="&#xe608;" glyph-name="position" d="M512.839 445.733c-88.494 0-160.473 72.97-160.473 162.663 0 89.702 71.978 162.682 160.473 162.682 88.493 0 160.472-72.979 160.472-162.682 0-89.693-71.979-162.663-160.472-162.663zM512.839 732.069c-66.969 0-121.463-55.475-121.463-123.673 0-68.18 54.494-123.654 121.463-123.654 66.97 0 121.463 55.474 121.463 123.654 0 68.197-54.493 123.673-121.463 123.673zM521.276 61.131h-16.875l-5.676 5.485c-12.399 12-303.612 297.242-288.793 590.844-0.077 170.053 135.845 307.946 302.908 307.946s302.983-137.892 302.983-307.384l-0.094-2.238c14.856-291.927-276.375-577.168-288.775-589.169l-5.676-5.484zM512.839 926.397c-145.559 0-263.975-120.388-263.975-268.374l0.038-2.523c-12.229-242.014 207.518-488.493 263.937-547.569 56.379 59.103 276.165 305.793 263.917 547.559l-0.056 1.219 0.132 1.972c-0.018 147.329-118.435 267.717-263.993 267.717z" />
<glyph unicode="&#xe609;" glyph-name="attention" d="M778.833 112.989c-8.707 0-17.341 2.313-24.926 6.702l-244.994 142.166-244.959-142.148c-17.196-9.862-39.737-8.346-55.234 3.575-16.038 12.355-22.975 32.91-17.664 52.453l71.236 262.678-161.493 149.23c-15.154 13.961-20.084 35.419-12.553 54.636 7.514 19.183 25.684 31.573 46.275 31.573h216.98l112.149 247.759c7.675 17.040 25.033 27.644 45.263 27.644 20.231 0 37.568-10.603 45.263-27.662l112.129-247.74h216.999c20.626 0 38.796-12.426 46.275-31.608 7.514-19.164 2.6-40.621-12.571-54.62l-161.493-149.21 71.254-262.696c5.293-19.525-1.642-40.079-17.664-52.434-8.669-6.646-19.398-10.295-30.271-10.295zM508.914 304.627l263.525-152.913c4.317-2.495 10.114-2.151 14.125 0.904 4.082 3.142 5.852 8.417 4.516 13.401l-77.144 284.353 177.966 164.436c3.9 3.595 5.147 9.049 3.215 13.962-1.879 4.84-6.629 8.092-11.812 8.092h-240.84l-121.991 269.503c-1.969 4.362-7.46 5.898-11.559 5.898-4.119 0-9.61-1.535-11.56-5.879l-121.991-269.522h-240.84c-5.274 0-9.897-3.179-11.83-8.092s-0.668-10.367 3.196-13.944l177.986-164.455-77.126-284.335c-1.355-5.003 0.434-10.277 4.534-13.419 3.973-3.072 9.735-3.432 14.178-0.87l263.454 152.878z" />
<glyph unicode="&#xe60a;" glyph-name="like1" d="M510.924 147.029c-24.194 0-47.819 9.865-64.815 27.056l-272.551 274.774c-47.236 47.319-73.275 110.288-73.275 177.276 0 67.038 26.096 130.047 73.48 177.431 47.377 47.417 110.418 73.53 177.514 73.53 60.078 0 112.223-20.689 158.982-63.181 46.933 42.485 99.552 63.181 160.394 63.181 67.030 0 130.055-26.113 177.447-73.53 47.416-47.392 73.529-110.41 73.529-177.431 0-66.979-26.088-129.989-73.456-177.438l-272.442-274.685c-16.972-17.144-40.597-26.983-64.806-26.983zM351.275 843.482c-58.11 0-112.707-22.617-153.738-63.681-41.041-41.040-63.64-95.604-63.64-153.665 0-58.019 22.543-112.559 63.485-153.566l272.616-274.834c21.501-21.765 60.44-21.699 81.858-0.064l272.494 274.734c41.063 41.138 63.665 95.718 63.665 153.73 0 58.044-22.617 112.608-63.682 153.665-41.055 41.065-95.628 63.681-153.681 63.681-57.37 0-104.508-20.499-148.347-64.518l-12.523-12.581-13.229 14.205c-42.688 42.321-90.213 62.894-145.277 62.894z" />
<glyph unicode="&#xe60b;" glyph-name="like2" d="M866.681 816.926c-48.207 48.223-112.328 74.812-180.554 74.812-66.747 0-123.087-23.877-174.747-75.746l-0.167-0.203c-0.642 0.725-1.313 1.398-2.021 2.046-50.145 49.715-106.182 73.903-171.328 73.903-68.228 0-132.398-26.571-180.622-74.812-48.192-48.207-74.762-112.369-74.762-180.53 0-68.145 26.503-132.263 74.593-180.42l297.226-299.667c15.12-15.289 36.135-24.046 57.652-24.046 21.52 0 42.57 8.756 57.656 24.012l297.14 299.582c48.192 48.275 74.727 112.362 74.727 180.539 0.001 68.16-26.587 132.322-74.794 180.53z" />
<glyph unicode="&#xe60c;" glyph-name="add" d="M85.184 530.278h852.414v-41.936h-852.414v41.936zM490.395 935.517h41.973v-852.414h-41.973v852.414z" />
<glyph unicode="&#xe60d;" glyph-name="edit" d="M107.97 143.701l121.531 283.549 511.694 511.711 4.118 1.264c1.075 0.308 10.967 3.246 26.051 3.246 24.567 0 61.38-7.516 97.324-43.46 60.15-60.134 36.217-118.234 35.174-120.676l-1.333-3.109-511.009-511.011-283.549-121.514zM258.987 407.279l-84.392-196.969 196.935 84.407 501.018 501c2.631 9.43 8.234 42.691-28.58 79.557-27.471 27.436-54.65 33.209-72.605 33.209-5.193 0-9.345-0.462-12.112-0.922l-500.265-500.283zM586.883 131.538h-478.912v12.163l53.258 22.823h425.654zM695.152 891.287l113.706-113.706-24.737-24.737-113.706 113.706 24.737 24.737zM642.669 838.805l113.705-113.705-24.736-24.736-113.705 113.705 24.736 24.736z" />
<glyph unicode="&#xe60e;" glyph-name="delete" d="M721.49 125.209h-419.024c-8.546 0-15.596 6.665-16.084 15.196l-32.233 564.070c-0.52 8.884 6.28 16.502 15.172 17.013 8.231 0.433 16.495-6.281 16.998-15.173l31.366-548.877h388.585l31.367 548.877c0.503 8.892 8.625 15.605 16.997 15.173 8.892-0.512 15.692-8.129 15.173-17.013l-32.233-564.070c-0.486-8.531-7.537-15.196-16.083-15.196zM818.188 705.396h-612.419c-8.908 0-16.117 7.215-16.117 16.116v64.466c0 7.877 5.698 14.605 13.473 15.896l182.915 30.485 13.22 54.141c1.762 7.215 8.231 12.292 15.66 12.292h193.758c7.396 0 13.835-5.037 15.627-12.206l13.568-54.219 182.961-30.494c7.776-1.291 13.472-8.019 13.472-15.896v-64.466c0-8.901-7.207-16.116-16.117-16.116zM221.885 737.629h580.189v34.696l-179.925 29.99c-6.326 1.054-11.442 5.759-12.984 11.985l-13.079 52.26h-168.514l-12.748-52.173c-1.543-6.265-6.657-11.009-13.015-12.071l-179.925-29.99v-34.697zM609.384 221.906c-0.235 0-0.456 0.008-0.692 0.017-8.894 0.367-15.802 7.874-15.424 16.769l16.116 386.791c0.379 8.9 8.028 15.621 16.778 15.431 8.892-0.369 15.801-7.877 15.423-16.769l-16.115-386.792c-0.362-8.665-7.492-15.448-16.086-15.448zM415.957 221.906c-8.593 0-15.723 6.783-16.083 15.448l-16.117 386.792c-0.377 8.892 6.533 16.4 15.423 16.769 8.972 0.189 16.402-6.532 16.778-15.431l16.116-386.792c0.378-8.894-6.532-16.401-15.423-16.769-0.236-0.009-0.456-0.016-0.694-0.016zM512.671 221.906c-8.908 0-16.116 7.217-16.116 16.117v386.791c0 8.9 7.207 16.116 16.116 16.116s16.117-7.215 16.117-16.116v-386.791c0-8.901-7.208-16.117-16.117-16.117z" />
<glyph unicode="&#xe60f;" glyph-name="stick" d="M511.051 68.647c-244.722 0-443.789 199.068-443.789 443.751 0 244.711 199.068 443.809 443.789 443.809 244.701 0 443.788-199.098 443.788-443.809-0.001-244.683-199.087-443.751-443.788-443.751zM511.051 922.074c-225.864 0-409.666-183.793-409.666-409.676 0-225.845 183.803-409.625 409.666-409.625s409.665 183.782 409.665 409.625c0 225.883-183.802 409.676-409.665 409.676zM331.652 733.788h358.799v-40.441h-358.799v40.441zM490.83 607.302h40.442v-358.8h-40.442v358.8zM687.942 453.899l-30.213-26.858-146.678 165.006-146.641-165.006-30.212 26.858 176.853 198.988z" />
<glyph unicode="&#xe610;" glyph-name="camera" d="M512.287 267.404c-109.843 0-199.203 89.359-199.203 199.204s89.359 199.21 199.203 199.21c109.859 0 199.22-89.367 199.22-199.21-0.001-109.845-89.361-199.204-199.22-199.204zM512.287 632.707c-91.589 0-166.091-74.51-166.091-166.099 0-91.591 74.502-166.092 166.091-166.092 91.591 0 166.108 74.501 166.108 166.092 0 91.589-74.517 166.099-166.108 166.099zM944.645 167.149h-863.415v581.142h33.12v-548.032h797.183v548.032h33.111zM321.653 737.021l-32.562 5.918 27.371 150.594h392.958l27.356-150.594-32.563-5.918-22.44 123.4h-337.68zM712.201 769h232.478v-33.111h-232.478v33.111zM81.198 769h232.469v-33.111h-232.469v33.111zM808.271 579.757c-32.692 0-59.304 27.671-59.304 61.688 0 34.025 26.612 61.703 59.304 61.703 32.723 0 59.334-27.678 59.334-61.703 0-34.017-26.612-61.688-59.334-61.688zM808.271 686.594c-23.573 0-42.748-20.25-42.748-45.148 0-24.883 19.175-45.132 42.748-45.132 23.588 0 42.779 20.25 42.779 45.132-0.001 24.898-19.191 45.148-42.779 45.148zM396.397 477.148h231.781v-21.067h-231.781v21.067zM501.778 582.489h21.067v-231.788h-21.067v231.788z" />
<glyph unicode="&#xe611;" glyph-name="label" d="M719.030 685.29c18.374 0 35.602 7.151 48.502 19.982 12.95 12.899 20.084 30.041 20.084 48.279s-7.202 35.345-20.084 48.16c-25.97 25.85-70.929 25.781-96.9 0-26.689-26.569-26.637-69.852 0-96.386 12.916-12.883 30.145-20.034 48.398-20.034zM692.906 779.623c7.014 6.946 16.304 10.777 26.175 10.777 9.939 0 19.229-3.832 26.244-10.83 7.031-6.929 10.847-16.202 10.847-26.022 0-9.888-3.816-19.195-10.847-26.107-7.014-6.997-16.304-10.881-26.295-10.881-9.82 0-19.109 3.883-26.123 10.881-14.44 14.354-14.44 37.758-0.001 52.18zM879.008 912.689c-3.011 3.199-7.476 5.304-11.856 4.567l-354.153-18.065c-3.936-0.171-7.526-1.762-10.316-4.551l-411.028-409.241c-2.96-2.874-4.627-6.86-4.627-11.018 0-4.208 1.668-8.177 4.627-11.068l335.874-334.479c3.079-3.011 7.133-4.551 11.189-4.551 3.987 0 7.99 1.54 11.069 4.551l411.089 409.223c2.79 2.79 4.397 6.416 4.619 10.265l18.135 352.528c0.237 4.415-1.44 8.725-4.621 11.839zM834.39 555.952l-395.674-393.895-313.745 312.324 395.674 393.913 330.75 16.868-17.005-329.21zM352.901 351.751c3.079-3.063 7.134-4.602 11.189-4.602 3.986 0 7.989 1.539 11.068 4.602l187.144 186.306c6.16 6.142 6.16 16.013 0 22.155-6.123 6.074-16.098 6.074-22.205 0l-187.196-186.289c-6.158-6.124-6.158-16.030 0-22.172zM487.662 634.513c-6.159 6.056-16.081 6.056-22.223 0l-187.111-186.307c-6.159-6.124-6.159-16.030 0-22.103 3.079-3.080 7.032-4.584 11.069-4.584 4.054 0 8.059 1.505 11.138 4.584l187.128 186.255c6.106 6.142 6.106 16.014-0.001 22.156z" />
<glyph unicode="&#xe612;" glyph-name="share" d="M893.306 130.813h-782.178v762.122h501.398v-40.112h-461.286v-681.9h701.954v421.173h40.113zM777.339 619.929l-23.758 26.754 146.032 129.834-146.032 129.775 23.758 26.754 176.135-156.529zM461.362 426.656c-1.783 6.973-42.736 171.924 57.581 283.328 75.758 84.14 209.49 112.658 397.357 84.826l-5.876-39.681c-173.784 25.755-295.469 1.547-361.671-71.977-86.079-95.598-48.925-245.018-48.533-246.506l-38.858-9.99z" />
<glyph unicode="&#xe613;" glyph-name="shopping" d="M838.402 333.66v0h-508.387c-21.636 0-39.195 17.51-39.195 39.303 0 10.463 4.060 20.225 11.452 27.681 7.376 7.391 17.273 11.546 27.742 11.546h503.359c7.693 0 14.34 5.221 16.195 12.611l83.908 335.485c1.221 4.972 0.111 10.168-3.060 14.348-3.125 3.973-7.963 6.344-13.118 6.344h-658.139l-24.744 99.294c-1.84 7.408-8.486 12.587-16.243 12.587h-111.524c-9.263 0-16.654-7.573-16.654-16.631 0-9.263 7.391-16.654 16.654-16.654h98.598l24.84-99.287 79.627-318.838c-11.5-3.347-22.349-8.543-31.026-17.281-13.642-13.626-21.223-31.955-21.223-51.205 0-23.060 11.405-42.713 28.155-55.998-2.189-1.673-4.902-2.552-6.98-4.681-13.594-13.641-21.175-31.848-21.175-51.209 0-40.113 32.533-72.598 72.473-72.598h0.254c19.352 0 37.545 7.533 51.297 21.334 13.657 13.659 21.223 31.85 21.175 51.266 0 14.8-5.567 27.695-13.245 39.244h389.63c-7.787-11.842-13.165-24.855-13.165-39.244 0-40.113 32.468-72.598 72.472-72.598h0.286c19.305 0 37.56 7.533 51.202 21.334 13.642 13.659 21.208 31.85 21.208 51.266-0.001 39.936-32.534 72.421-72.649 72.582zM895.965 747.685l-75.598-302.193h-477.234l-75.597 302.193h628.429zM369.305 260.909c0.047-10.415-4.029-20.122-11.453-27.577-7.391-7.391-17.21-11.546-27.663-11.546h-0.301c-21.509 0-39.068 17.574-39.068 39.29 0 10.525 4.060 20.286 11.452 27.695 7.376 7.391 17.21 11.548 27.917 11.548 21.604 0 39.116-17.687 39.116-39.41zM866.272 233.332c-7.408-7.391-17.29-11.546-27.632-11.546h-0.333c-21.556 0-39.131 17.574-39.131 39.29 0 10.525 4.045 20.286 11.437 27.695 7.391 7.391 17.336 11.548 28.027 11.548 21.556 0 39.084-17.686 39.084-39.41 0-10.415-3.998-20.122-11.453-27.577z" />
<glyph unicode="&#xe614;" glyph-name="prompt" d="M518.39 273.961c-21.655 0-39.091 17.456-39.091 39.090 0 21.654 17.436 39.090 39.091 39.090 21.614 0 39.091-17.436 39.091-39.090 0-21.636-17.477-39.090-39.091-39.090zM526.063 395.411h-20.932l-23.744 300.182c-1.407 25.13 12.575 54.438 34.913 54.438 23.703 0 38.367-28.615 36.278-54.438l-26.516-300.182zM518.39 60.547c-248.928 0-451.453 202.526-451.453 451.443 0 248.928 202.526 451.464 451.453 451.464 248.889 0 451.454-202.535 451.454-451.464-0.001-248.917-202.567-451.443-451.454-451.443zM518.39 928.732c-229.764 0-416.741-186.958-416.741-416.742 0-229.754 186.977-416.73 416.741-416.73s416.741 186.977 416.741 416.73c0 229.784-186.977 416.742-416.741 416.742z" />
<glyph unicode="&#xe615;" glyph-name="picture" d="M922.806 126.307h-820.364c-9.849 0-17.834 7.985-17.834 17.834v749.027c0 9.849 7.985 17.834 17.834 17.834h820.364c9.848 0 17.834-7.985 17.834-17.834v-749.027c-0.001-9.85-7.986-17.834-17.834-17.834zM120.275 161.974h784.696v713.36h-784.696v-713.36zM851.47 304.645h-677.692c-9.849 0-17.833 7.987-17.833 17.834v499.352c0 9.849 7.985 17.834 17.833 17.834h677.692c9.848 0 17.835-7.986 17.835-17.834v-499.352c-0.001-9.847-7.987-17.834-17.835-17.834zM191.612 340.314h642.023v463.685h-642.023v-463.685zM851.452 435.44c-4.242 0-8.5 1.507-11.904 4.563l-192.926 173.219c-23.285 17.66-63.411 16.772-87.045-2.717l-134.861-139.98c-6.836-7.098-18.13-7.297-25.218-0.47-7.088 6.836-7.306 18.122-0.471 25.217l135.523 140.67c0.419 0.427 0.844 0.835 1.306 1.219 36 30.565 95.893 32.168 133.485 3.518l194.031-174.133c7.333-6.584 7.942-17.86 1.359-25.183-3.526-3.928-8.385-5.924-13.278-5.924zM512.615 375.991c-4.198 0-8.413 1.472-11.808 4.475l-140.956 124.621c-23.033 18.826-62.253 18.111-85.103-2.048l-88.447-87.298c-7.010-6.924-18.295-6.853-25.218 0.176-6.914 7.010-6.845 18.296 0.174 25.217l89.17 87.978c36.495 32.246 95.622 33.317 132.537 3.134l141.478-125.065c7.377-6.522 8.073-17.79 1.542-25.173-3.519-3.979-8.43-6.017-13.367-6.017zM405.619 625.659c-39.334 0-71.336 32.001-71.336 71.336 0 39.334 32.002 71.336 71.336 71.336s71.336-32.002 71.336-71.336c0.001-39.335-32.001-71.336-71.336-71.336zM405.619 732.663c-19.671 0-35.667-15.996-35.667-35.668s15.996-35.667 35.667-35.667 35.668 15.996 35.668 35.667-15.996 35.668-35.668 35.668zM655.297 482.986c-3.467 0-6.916 1.009-9.893 2.994l-43.609 29.078-43.609-29.078c-5.99-3.987-13.793-3.987-19.785 0l-53.503 35.669c-8.195 5.459-10.405 16.537-4.946 24.73s16.526 10.432 24.73 4.946l43.609-29.075 43.61 29.075c5.99 3.989 13.793 3.989 19.784 0l44.889-29.93 62.079 31.044c8.831 4.406 19.533 0.828 23.93-7.976 4.406-8.813 0.836-19.524-7.976-23.93l-71.337-35.667c-2.515-1.255-5.25-1.881-7.975-1.881z" />
<glyph unicode="&#xe616;" glyph-name="type" d="M420.515 823.731h182.907v-623.469h-182.907v623.469zM151.526 912.787h720.904v-89.055h-720.904v89.055zM329.673 200.262h364.628v-89.066h-364.628v89.066zM151.526 912.804h89.047v-186.472h-89.047v186.472zM783.365 912.804h89.047v-186.472h-89.047v186.472z" />
<glyph unicode="&#xe617;" glyph-name="camera2" d="M832.766 577.998c-32.743 0-59.397 27.714-59.397 61.785 0 34.078 26.654 61.802 59.397 61.802 32.759 0 59.413-27.723 59.413-61.802 0-34.070-26.654-61.785-59.413-61.785zM832.766 685.002c-23.61 0-42.815-20.282-42.815-45.219 0-24.922 19.205-45.204 42.815-45.204s42.83 20.282 42.83 45.204c0.001 24.938-19.22 45.219-42.83 45.219zM511.979 254.158c-112.689 0-204.375 91.686-204.375 204.376 0 112.696 91.686 204.382 204.375 204.382 112.705 0 204.39-91.686 204.39-204.382 0-112.69-91.685-204.376-204.39-204.376zM511.979 629.752c-94.406 0-171.211-76.812-171.211-171.219s76.804-171.212 171.211-171.212c94.406 0 171.227 76.806 171.227 171.212s-76.821 171.219-171.227 171.219zM511.979 322.446c-75.039 0-136.087 61.048-136.087 136.087s61.048 136.087 136.087 136.087 136.087-61.048 136.087-136.087c0-75.039-61.048-136.087-136.087-136.087zM511.979 561.456c-56.74 0-102.924-46.176-102.924-102.924 0-56.749 46.184-102.924 102.924-102.924s102.924 46.175 102.924 102.924-46.183 102.924-102.924 102.924zM955.381 147.452h-886.805v597.045h33.163v-563.88h820.478v563.88h33.164zM709.082 732.999l-23.156 127.23h-347.911l-23.124-127.23-32.629 5.927 28.078 154.467h403.277l28.078-154.467zM716.855 765.353h239.012v-33.164h-239.012v33.164zM68.091 765.353h239.012v-33.164h-239.012v33.164z" />
<glyph unicode="&#xe618;" glyph-name="group" d="M758.607 133.505h-595.949l-2.582 13.598c-5.442 28.666-8.187 57.887-8.187 86.879 0 144.284 65.486 274.139 168.759 338.505-37.916 35.767-59.243 84.167-59.243 136.088 0 105.436 89.363 191.213 199.221 191.213s199.237-85.776 199.237-191.212c0-51.922-21.328-100.322-59.244-136.088 103.271-64.367 168.759-194.221 168.759-338.506 0-28.976-2.762-58.196-8.188-86.863l-2.581-13.613zM190.588 166.976h540.071c3.48 22.21 5.246 44.682 5.246 67.005 0 141.695-67.596 267.675-172.207 320.961l-24.269 12.364 21.997 16.065c41.283 30.145 64.963 75.783 64.963 125.204 0 86.978-74.36 157.743-165.766 157.743-91.39 0-165.751-70.765-165.751-157.743 0-49.421 23.681-95.059 64.964-125.204l21.998-16.065-24.269-12.364c-104.612-53.286-172.206-179.275-172.206-320.961 0-22.323 1.764-44.813 5.229-67.005zM888.205 211.233l-32.914 6.078c4.592 24.842 6.912 50.19 6.912 75.308 0 132.241-61.302 249.763-156.19 299.389l-23.501 12.298 21.212 15.919c37.344 28.020 58.753 70.455 58.753 116.411 0 80.62-66.941 146.335-149.211 146.482l0.064 33.47c100.689-0.18 182.617-80.906 182.617-179.952 0-48.409-19.236-93.59-53.49-127.182 93.792-60.649 153.216-182.053 153.216-316.835 0.001-27.152-2.516-54.536-7.468-81.387z" />
<glyph unicode="&#xe619;" glyph-name="light" d="M622.77 300.806l-17.958 32.608c104.658 57.582 186.634 195.121 186.634 313.131 0 145.437-131.65 263.763-293.473 263.763s-293.473-118.327-293.473-263.763c0-118.001 81.992-255.547 186.651-313.131l-17.958-32.608c-115.473 63.525-205.918 215.397-205.918 345.738 0 165.967 148.354 300.988 330.698 300.988s330.698-135.022 330.698-300.988c0-130.351-90.444-282.222-205.9-345.738zM637.966 196.521h-279.967v139.201h24.156v-18.613h13.069v-83.364h205.518v83.364h13.050v18.613h24.175zM640.437 86.717h-275.005v96.681h275.005v-96.681zM402.657 123.942h200.556v22.231h-200.556v-22.231zM424.869 521.455h37.225v-297.225h-37.225v297.225zM543.759 521.455h37.225v-297.225h-37.225v297.225zM433.575 521.492h138.703v-37.224h-138.703v37.224z" />
<glyph unicode="&#xe61a;" glyph-name="delete3" d="M511.968 64.382c-246.812 0-447.597 200.805-447.597 447.598 0 246.824 200.785 447.637 447.597 447.637 246.834 0 447.618-200.815 447.618-447.637 0-246.793-200.784-447.598-447.618-447.598zM511.968 925.191c-227.811 0-413.2-185.378-413.2-413.21 0-227.791 185.388-413.161 413.2-413.161s413.221 185.37 413.221 413.161c0 227.832-185.409 413.21-413.221 413.21zM287.623 532.396h448.693v-40.791h-448.693v40.791z" />
<glyph unicode="&#xe61b;" glyph-name="add2" d="M512.538 63.648c-246.812 0-447.596 200.815-447.596 447.617 0 246.812 200.784 447.627 447.596 447.627 246.833 0 447.617-200.814 447.617-447.627 0-246.802-200.784-447.617-447.617-447.617zM512.538 924.465c-227.801 0-413.19-185.368-413.19-413.2 0-227.802 185.388-413.191 413.19-413.191 227.813 0 413.22 185.388 413.22 413.191-0.001 227.832-185.408 413.2-413.22 413.2zM288.212 531.67h448.693v-40.79h-448.693v40.79zM492.163 735.621h40.79v-448.692h-40.79v448.692z" />
<glyph unicode="&#xe61c;" glyph-name="release" d="M93.76 831.488v-676.736h694.4v498.624h-35.52v-462.976h-623.296v605.504h498.624v35.584zM696.192 946.112l2.112-35.456 167.232 9.856-365.504-365.632 25.216-25.152 365.504 365.568-9.728-167.296 35.392-2.112 13.888 234.112z" />
<glyph unicode="&#xe61d;" glyph-name="prompt2" d="M516.131 964.401c-248.499 0-449.978-201.47-449.978-449.977 0-248.51 201.48-449.977 449.978-449.977 248.519 0 449.977 201.468 449.977 449.977s-201.457 449.977-449.977 449.977zM513.563 807.016c29.16 0 47.185-35.185 44.617-66.938l-32.617-368.94h-25.729l-29.185 368.94c-1.704 30.888 15.456 66.938 42.913 66.938zM516.13 221.829c-26.591 0-48.048 21.458-48.048 48.050 0 26.619 21.457 48.049 48.048 48.049 26.593 0 48.049-21.43 48.049-48.049 0-26.593-21.457-48.050-48.049-48.050z" />
<glyph unicode="&#xe61e;" glyph-name="increase" d="M288.044 541.638h463.218v-59.304h-463.218v59.304zM490.002 743.605h59.323v-463.219h-59.323v463.219zM950.971 80.697h-862.613v862.605h862.613v-862.605zM126.767 119.11h785.792v785.781h-785.792v-785.781z" />
<glyph unicode="&#xe61f;" glyph-name="share2" d="M949.647 70.541h-886.115v886.114h690.19v-38.844h-651.347v-808.426h808.427v567.145h38.844zM911.969 950.583l28.258-26.665-615.038-651.781-28.258 26.665 615.038 651.781z" />
<glyph unicode="&#xe620;" glyph-name="top" d="M512.923 65.139c-246.835 0-447.621 200.787-447.621 447.582 0 246.816 200.786 447.642 447.621 447.642 246.815 0 447.623-200.826 447.623-447.642-0.001-246.795-200.807-447.582-447.623-447.582zM512.923 925.925c-227.814 0-413.204-185.371-413.204-413.205 0-227.793 185.39-413.164 413.204-413.164s413.206 185.37 413.206 413.164c0 227.835-185.391 413.205-413.206 413.205zM331.975 736.033h361.898v-40.79h-361.898v40.79zM492.528 608.444h40.791v-361.898h-40.791v361.898zM691.342 453.726l-30.472-27.088-147.947 166.429-147.906-166.429-30.473 27.088 178.379 200.687z" />
<glyph unicode="&#xe625;" glyph-name="next" d="M156.165 723.7l381.887-381.887-26.335-26.335-381.887 381.887 26.335 26.335zM507.026 363.594l363.285 363.285 26.317-26.335-363.268-363.267z" />
<glyph unicode="&#xe626;" glyph-name="right" d="M311.666 163.537l380.862 382.914 26.405-26.264-380.862-382.914-26.405 26.264zM670.826 515.402l-364.274 362.294 26.262 26.389 364.256-362.277z" />
<glyph unicode="&#xe627;" glyph-name="top1" d="M712.334 860.463l-380.862-382.914-26.405 26.264 380.862 382.914 26.405-26.264zM353.174 508.598l364.274-362.294-26.262-26.389-364.256 362.277z" />
<glyph unicode="&#xe628;" glyph-name="bottom1" d="M860.463 311.666l-382.914 380.862 26.264 26.405 382.914-380.862-26.264-26.405zM508.598 670.826l-362.294-364.274-26.389 26.262 362.277 364.256z" />
<glyph unicode="&#xe887;" glyph-name="help" d="M668.040 550.412c28.808 28.808 48.012 69.62 48.012 115.232 0 112.828-91.224 204.052-204.052 204.052s-204.052-91.224-204.052-204.052h100.828c0 55.216 48.012 103.228 103.228 103.228s103.228-48.012 103.228-103.228c0-28.808-12.004-52.812-31.208-72.020l-62.416-64.816c-36.008-38.412-60.016-88.824-60.016-144.036v-26.408h100.828c0 76.82 24.008 105.628 60.016 144.036zM562.412 154.308v100.828h-100.828v-100.828h100.828zM512 1023.332c283.272 0 511.332-228.060 511.332-511.332s-228.060-511.332-511.332-511.332-511.332 228.060-511.332 511.332 228.060 511.332 511.332 511.332z" />
<glyph unicode="&#xe900;" glyph-name="loading" d="M509.201 940.432h0.010c14.787 0 26.883-12.091 26.883-26.878v-113.235c0-14.795-12.095-26.894-26.883-26.894h-0.010c-14.794 0-26.89 12.099-26.89 26.894v113.235c0 14.787 12.097 26.878 26.89 26.878zM509.201 252.621h0.010c14.787 0 26.883-12.091 26.883-26.878v-113.235c0-14.795-12.095-26.892-26.883-26.892h-0.010c-14.794 0-26.89 12.098-26.89 26.892v113.236c0 14.786 12.097 26.877 26.89 26.877zM936.613 513.031v0c0-14.795-12.094-26.886-26.889-26.886h-113.223c-14.795 0-26.889 12.092-26.889 26.886s12.094 26.885 26.889 26.885h113.222c14.795 0 26.89-12.091 26.89-26.885zM248.803 513.031v0c0-14.795-12.095-26.886-26.889-26.886h-113.225c-14.794 0-26.889 12.092-26.889 26.886s12.095 26.885 26.889 26.885h113.224c14.795 0 26.89-12.091 26.89-26.885zM879.348 726.731v0c7.406-12.813 2.972-29.339-9.836-36.733l-98.056-56.603c-12.813-7.4-29.336-2.974-36.736 9.833-7.393 12.808-2.971 29.34 9.843 36.742l98.051 56.602c12.811 7.393 29.333 2.967 36.734-9.841zM283.687 382.825v0c7.405-12.814 2.971-29.339-9.836-36.733l-98.057-56.603c-12.814-7.4-29.336-2.974-36.73 9.832h-0.007c-7.394 12.809-2.971 29.341 9.843 36.742l98.060 56.602c12.807 7.394 29.326 2.968 36.726-9.84zM722.904 883.175v0c12.814-7.4 17.243-23.926 9.849-36.733l-56.615-98.049c-7.393-12.815-23.923-17.243-36.733-9.849-12.807 7.393-17.233 23.928-9.84 36.734l56.613 98.064c7.393 12.807 23.915 17.226 36.725 9.833zM379 287.509h0.011c12.803-7.393 17.229-23.918 9.836-36.733l-56.613-98.049c-7.393-12.814-23.923-17.243-36.734-9.847-12.807 7.394-17.232 23.934-9.84 36.733l56.613 98.063c7.393 12.807 23.916 17.227 36.726 9.833zM295.5 883.175h0.007c12.808 7.393 29.336 2.974 36.731-9.832l56.614-98.064c7.393-12.807 2.966-29.34-9.848-36.734s-29.333-2.966-36.725 9.849l-56.614 98.049c-7.402 12.805-2.975 29.338 9.836 36.732zM639.405 287.509v0c12.815 7.402 29.345 2.974 36.738-9.832l56.612-98.063c7.394-12.8 2.967-29.333-9.847-36.733-12.814-7.395-29.332-2.967-36.726 9.847l-56.613 98.049c-7.399 12.814-2.973 29.338 9.837 36.732zM139.057 726.731h0.007c7.393 12.815 23.916 17.243 36.73 9.849l98.053-56.609c12.811-7.393 17.238-23.928 9.844-36.742-7.401-12.807-23.924-17.225-36.731-9.833l-98.056 56.603c-12.814 7.4-17.241 23.926-9.847 36.732zM734.722 382.825v0c7.393 12.814 23.922 17.243 36.738 9.848l98.051-56.609c12.811-7.393 17.238-23.928 9.843-36.742-7.4-12.807-23.922-17.225-36.735-9.832l-98.057 56.603c-12.808 7.4-17.233 23.926-9.84 36.732z" />
<glyph unicode="&#xe901;" glyph-name="uniE901" d="M960.435 512c0-247.669-200.785-448.453-448.453-448.453-247.682 0-448.462 200.784-448.462 448.453 0 247.678 200.78 448.453 448.462 448.453 247.668 0 448.453-200.775 448.453-448.453z" />
<glyph unicode="&#xe902;" glyph-name="uniE902" d="M810.927 300.68l-196.973 86.616c-15.825 7.487-15.2 12.030-13.96 18.323 1.435 7.279 6.039 13.623 12.524 16.978 12.102 6.24 30.4 9.716 59.26 14.724l4.259 0.766c10.677 1.9 19.82 8.415 25.146 17.847 5.28 9.376 6.090 20.481 2.236 30.523-11.011 28.587-18.343 57.27-21.766 85.215-1.321 10.922-3.037 23.349-4.929 36.991-3.115 22.011-7.19 51.76-11.15 86.824-8.494 75.26-73.597 129.881-155.088 129.881-81.183 0-146.269-54.621-154.779-129.89-4.027-35.769-8.053-65.315-11.129-87.080-1.9-13.599-3.603-25.903-4.928-36.807-3.416-27.943-10.743-56.592-21.748-85.195-3.855-10.008-3.045-21.099 2.226-30.463 5.325-9.444 14.5-15.966 25.252-17.876l4.374-0.765c28.83-4.999 47.126-8.386 59.356-14.697 6.552-3.389 11.499-9.893 12.907-16.978 1.249-6.4 2.169-11.028-12.819-18.122l-194.697-85.927-0.656-0.889c-6.063-3.494-15.16-12.198-15.16-31.219v-53.344c0-9.214 1.021-25.885 30.321-25.885h563.291c25.903 0 37.265 11.080 37.265 25.893v53.336c0.001 13.193-7.638 24.874-18.631 31.219zM791.361 226.283h-556.627v43.866l190.517 84.563c10.082 4.771 40.265 19.301 32.661 57.869-3.524 17.894-15.657 33.613-31.998 42.044-16.924 8.73-37.651 12.605-69.798 18.174l-4.507 0.635c12.076 31.367 20.080 62.92 23.856 93.786 1.315 10.72 2.962 22.831 4.827 36.174 3.093 21.978 7.178 51.84 11.248 88.048 6.509 57.631 55.417 97.879 119.271 97.879 63.519 0 112.437-40.249 118.95-97.871 3.996-35.513 8.123-65.596 11.256-87.793 1.867-13.368 3.539-25.585 4.849-36.349 3.784-30.901 11.829-62.463 23.851-93.715l-4.243-0.767c-32.054-5.553-52.578-9.406-69.608-18.201-16.177-8.336-27.962-24.053-31.499-42.044-7.569-38.374 23.438-53.046 34.087-58.071l192.952-82.6-0.047-45.628z" />
<glyph unicode="&#xe903;" glyph-name="share-n" d="M115.2 300.8c32 233.6 124.8 352 355.2 390.4 48 9.6 60.8 22.4 57.6 67.2 0 28.8-16 67.2 16 83.2 35.2 16 57.6-19.2 80-38.4 76.8-64 153.6-124.8 233.6-185.6 38.4-28.8 38.4-51.2 0-80-86.4-70.4-172.8-140.8-259.2-211.2-16-12.8-35.2-22.4-54.4-19.2-28.8 9.6-16 32-19.2 51.2-3.2 105.6-25.6 118.4-131.2 86.4-92.8-25.6-192-86.4-217.6-150.4-3.2-9.6-9.6-19.2-12.8-32s-3.2-51.2-32-48c-25.6 3.2-22.4 38.4-22.4 54.4 3.2 12.8 6.4 22.4 6.4 32z" />
<glyph unicode="&#xe904;" glyph-name="item-n" d="M620.8 572.8c0 3.2-3.2 9.6-9.6 12.8-12.8 3.2-19.2-3.2-25.6-9.6-44.8-44.8-89.6-89.6-134.4-134.4-9.6-9.6-19.2-19.2-9.6-32 12.8-16 25.6-3.2 35.2 9.6 44.8 44.8 89.6 89.6 131.2 131.2 6.4 6.4 12.8 9.6 12.8 22.4zM345.6 771.2c-54.4 0-96-38.4-96-89.6 0-54.4 41.6-96 96-96s92.8 38.4 92.8 92.8c0 54.4-38.4 92.8-92.8 92.8zM345.6 620.8c-25.6 0-57.6 28.8-57.6 57.6s28.8 57.6 57.6 57.6c28.8 0 60.8-28.8 60.8-57.6-3.2-25.6-32-57.6-60.8-57.6zM732.8 464c-12.8 3.2-19.2-3.2-25.6-9.6-44.8-44.8-89.6-89.6-134.4-134.4-9.6-9.6-19.2-19.2-9.6-32 12.8-16 25.6-3.2 35.2 9.6 44.8 44.8 89.6 89.6 131.2 131.2 6.4 6.4 12.8 12.8 12.8 25.6 0 0-3.2 6.4-9.6 9.6zM476.8 844.8c-12.8 9.6-25.6 19.2-41.6 19.2-80 0-160 0-240 0-25.6 0-35.2-9.6-35.2-35.2 0-38.4 0-80 0-118.4s0-76.8 0-115.2c0-19.2 6.4-35.2 19.2-51.2 134.4-131.2 265.6-265.6 400-400 22.4-22.4 41.6-25.6 64 0 76.8 80 156.8 156.8 233.6 233.6 22.4 22.4 22.4 41.6 0 64-134.4 134.4-265.6 268.8-400 403.2zM825.6 387.2c-64-60.8-128-124.8-188.8-188.8-19.2-19.2-32-22.4-51.2 0-121.6 124.8-243.2 246.4-368 368-16 16-22.4 35.2-22.4 57.6 0 57.6 0 118.4 0 176 0 25.6 9.6 35.2 32 32 32-3.2 64 0 112 0 73.6 22.4 131.2-19.2 185.6-80 96-105.6 201.6-201.6 300.8-304 22.4-25.6 22.4-41.6 0-60.8zM681.6 512c0 6.4-3.2 12.8-9.6 12.8-12.8 3.2-19.2-3.2-25.6-9.6-44.8-44.8-89.6-89.6-134.4-134.4-9.6-9.6-19.2-19.2-6.4-32s22.4-3.2 32 6.4c44.8 44.8 89.6 89.6 134.4 134.4 3.2 6.4 9.6 12.8 9.6 22.4z" />
<glyph unicode="&#xe905;" glyph-name="vedio-n" d="M540.8 569.6c-28.8 16-54.4 51.2-86.4 38.4-35.2-16-6.4-57.6-16-86.4 9.6-28.8-19.2-70.4 16-86.4 32-12.8 57.6 22.4 86.4 38.4 80 41.6 80 48 0 96zM793.6 854.4c-188.8 0-377.6 0-566.4 0-60.8 0-83.2-19.2-83.2-73.6 0-83.2 0-166.4 0-249.6s0-166.4 0-249.6c0-51.2 22.4-73.6 83.2-73.6 188.8 0 377.6 0 566.4 0 60.8 0 83.2 19.2 83.2 73.6 0 166.4 0 332.8 0 502.4 0 51.2-25.6 70.4-83.2 70.4zM739.2 771.2c0 19.2-3.2 38.4 28.8 38.4 35.2-3.2 54.4-19.2 54.4-51.2 3.2-32-22.4-22.4-44.8-22.4-32-6.4-38.4 9.6-38.4 35.2zM777.6 688c28.8 0 54.4 0 44.8-35.2 3.2-25.6 0-41.6-38.4-38.4-28.8 0-48 3.2-48 35.2 6.4 25.6 6.4 41.6 41.6 38.4zM825.6 531.2c0-28.8-6.4-41.6-38.4-35.2-35.2-6.4-48 3.2-44.8 35.2 0 25.6 3.2 41.6 38.4 38.4 32 0 44.8-6.4 44.8-38.4zM198.4 761.6c3.2 28.8 22.4 44.8 54.4 44.8 32 3.2 28.8-19.2 28.8-38.4 6.4-25.6-3.2-38.4-38.4-35.2-22.4 3.2-48-3.2-44.8 28.8zM249.6 252.8c-35.2 3.2-51.2 19.2-51.2 48-3.2 35.2 28.8 22.4 48 25.6 38.4 6.4 38.4-16 35.2-38.4 3.2-22.4-3.2-38.4-32-35.2zM236.8 374.4c-41.6-6.4-38.4 16-38.4 41.6-3.2 32 19.2 32 44.8 32 41.6 3.2 38.4-19.2 38.4-41.6 3.2-35.2-19.2-35.2-44.8-32zM195.2 531.2c0 28.8 9.6 44.8 44.8 38.4 41.6 6.4 38.4-16 41.6-41.6 3.2-32-16-32-44.8-32-32-3.2-41.6 6.4-41.6 35.2zM240 614.4c-35.2 0-48 9.6-41.6 38.4-6.4 32 12.8 35.2 41.6 35.2 35.2 0 41.6-12.8 41.6-41.6s-12.8-32-41.6-32zM649.6 252.8c-92.8 0-185.6 0-278.4 0-28.8 0-41.6 6.4-41.6 32 0 163.2 0 326.4 0 489.6 0 22.4 9.6 32 35.2 32 92.8 0 188.8 0 281.6 0 32 0 38.4-12.8 38.4-35.2 0-83.2 0-163.2 0-246.4 0-80 0-160 0-240 3.2-25.6-6.4-32-35.2-32zM768 252.8c-35.2 0-25.6 22.4-25.6 38.4-3.2 28.8 6.4 41.6 35.2 35.2 25.6 0 48 6.4 48-25.6-3.2-32-22.4-48-57.6-48zM784 374.4c-32-6.4-44.8 3.2-41.6 35.2 0 25.6 3.2 41.6 38.4 38.4 32 0 48-6.4 48-38.4-6.4-28.8-12.8-41.6-44.8-35.2z" />
<glyph unicode="&#xe906;" glyph-name="shop-cart" d="M623.49 404.334c-65.871 0-131.741 0-195.104 0-17.721 0-32.935 0-50.685-2.536-25.328-5.071-32.935-15.214-22.793-40.542 20.257-48.149 55.728-73.477 108.948-73.477 81.084 0 159.633 0 240.689 0 40.542 0 81.084 2.536 119.091 0 58.264-5.071 96.27-58.264 83.62-111.484-10.143-40.542-45.613-70.942-86.156-70.942-43.078 0-86.156 32.935-93.735 78.549-2.536 17.721 0 45.613-10.143 53.22-17.721 10.143-43.078 10.143-65.871 10.143-32.935 0-68.406 0-101.341 0-25.328 0-40.542-10.143-40.542-38.007 0-15.214-2.536-32.935-10.143-48.149-20.257-43.078-65.871-63.335-111.484-48.149-48.149 17.721-76.013 65.871-55.728 111.484 20.257 43.078 5.071 70.942-10.143 111.484-25.328 58.264-38.007 124.162-53.22 187.497-22.793 98.806-38.007 197.64-60.799 296.445-12.678 55.728-20.257 60.799-78.549 60.799-25.328 0-50.685 0-76.013 2.536-10.143 0-17.721 12.678-25.328 20.257 10.143 7.607 17.721 20.257 27.864 20.257 45.613 2.536 93.735 0 139.348 2.536 25.328 0 35.471-15.214 40.542-38.007 22.793-114.020 27.864-96.27 124.162-103.877 174.819-15.214 349.638-22.793 524.477-32.935 17.721 0 32.935 0 50.685-2.536 53.22-5.071 60.799-17.721 43.078-68.406-20.257-65.871-43.078-131.741-63.335-197.64s-27.864-70.942-98.806-70.942c-63.335-7.607-129.205-7.607-192.568-7.607zM618.419 508.211c0-50.685 12.678-63.335 58.264-60.799 40.542 0 58.264 22.793 58.264 78.549 0 35.471-12.678 45.613-60.799 43.078-45.613 0-55.728-10.143-55.728-60.799zM514.541 571.546c-45.613 0-53.22-7.607-53.22-40.542 0-63.335 12.678-81.084 58.264-81.084 43.078 0 53.22 12.678 53.22 65.871 0 45.613-7.607 55.728-58.264 55.728zM512.006 614.624c20.257 2.536 45.613-7.607 55.728 22.793 20.257 50.685-2.536 83.62-55.728 88.691-5.071 0-7.607 0-12.678 0-60.799 0-70.942-10.143-60.799-68.406 7.607-35.471 17.721-43.078 73.477-43.078zM770.445 482.855c5.071-7.607 10.143-22.793 20.257-30.4 20.257-15.214 58.264-5.071 73.477 15.214 17.721 20.257 30.4 88.691 17.721 91.199-25.328 5.071-53.22 12.678-76.013 5.071-30.4-10.143-27.864-48.149-35.471-81.084zM686.825 617.16c2.536-2.536 2.536-5.071 5.071-7.607 17.721 10.143 45.613 15.214 55.728 30.4 22.793 38.007 5.071 65.871-40.542 73.477-12.678 2.536-25.328 5.071-38.007 5.071-38.007 0-48.149-10.143-50.685-48.149s7.607-50.685 43.078-53.22c10.143-2.536 17.721 0 25.328 0zM395.451 660.21c0 58.264-17.721 78.549-70.942 78.549-32.935 0-48.149-10.143-43.078-38.007 10.143-70.942 7.607-83.62 63.335-86.156 40.542 0 48.149 7.607 50.685 45.613zM418.271 503.14c-2.536 10.143 0 27.864-7.607 40.542-10.143 12.678-27.864 22.793-45.613 25.328-15.214 2.536-35.471-2.536-45.613-12.678-20.257-22.793 2.536-93.735 30.4-103.877 38.007-17.721 68.406 2.536 68.406 50.685zM861.672 617.16c2.536 0 10.143 0 17.721 0 35.471 2.536 48.149 17.721 50.685 50.685 0 35.471-27.864 30.4-48.149 32.935-17.721 2.536-35.471 2.536-50.685-2.536-12.678-2.536-27.864-15.214-30.4-27.864-12.678-43.078 5.071-58.264 60.799-53.22zM463.885 194.016c0 22.793-25.328 48.149-48.149 45.613-20.257 0-43.078-22.793-45.613-45.613 0-22.793 25.328-48.149 48.149-45.613s45.613 25.328 45.613 45.613zM816.058 148.431c20.257-2.536 45.613 20.257 48.149 40.542 2.536 22.793-20.257 50.685-43.078 50.685s-48.149-22.793-48.149-48.149c0-17.721 22.793-43.078 43.078-43.078z" />
<glyph unicode="&#xe907;" glyph-name="category" horiz-adv-x="1019" d="M513.99 468.788c-42.643-2.559-71.64 25.586-103.765 42.643-119.116 63.68-236.811 129.919-356.495 192.462-20.171 7.197-35.048 24.533-38.615 45.709 1.929 22.36 16.92 40.412 37.097 46.864q216.722 109.271 433.064 218.437c9.334 5.267 20.494 8.371 32.378 8.371 13.069 0 25.261-3.753 35.558-10.239 141.867-72.899 284.010-141.981 426.153-215.327 53.446-28.429 53.446-62.827 0-91.256q-202.696-109.735-406.53-217.195c-16.171-7.286-35.74-14.274-55.918-19.787zM861.104 569.142c18.142 3.111 39.039 4.888 60.351 4.888 2.27 0 4.536-0.020 6.796-0.060 36.389-1.728 67.897-22.517 84.679-52.635 16.471-42.881-35.553-50.556-58.296-63.349-133.899-75.62-271.778-144.418-406.53-218.048-10.896-8.508-24.786-13.642-39.876-13.642-12.243 0-23.697 3.38-33.48 9.257q-214.626 120.373-431.252 237.215c-19.616 10.803-47.192 22.174-39.8 43.496 11.656 33.546 48.613 45.77 80.453 56.857 7.647 2.877 16.485 4.542 25.712 4.542 13.535 0 26.234-3.583 37.199-9.853 2.705-2.669 4.62-6.739 4.62-11.256 0-0.775-0.056-1.536-0.165-2.281-81.58-92.308 45.212-69.281 61.416-107.944 10.321-11.645 24.024-20.082 39.565-23.776 90.923-38.199 176.777-142.247 260.642-122.347 129.919 29.85 247.045 117.41 367.014 184.786 38.379 24.449 1.137 55.72-19.047 84.149zM893.797 289.119c3.127 23.027-46.339 52.877 12.224 59.416 2.649 0.215 5.734 0.337 8.848 0.337 39.216 0 73.898-19.414 94.958-49.156 23.839-30.781-16.245-41.584-39.272-54.093-144.133-78.463-288.267-156.926-430.41-236.526-8.917-5.678-19.784-9.050-31.439-9.050-13.082 0-25.171 4.248-34.965 11.44-141.979 78.916-284.122 155.389-426.265 233-24.164 13.077-69.65 25.017-34.967 59.7 28.429 28.429 70.503 62.259 121.959 37.81 3.917-3.735 6.353-8.995 6.353-14.823 0-1.394-0.139-2.756-0.405-4.071-50.581-64.118 18.501-67.245 46.645-89.135 19.862-14.388 42.429-27.751 66.201-38.981 87.882-44.599 173.168-86.389 258.454-130.453q183.365 96.942 366.445 193.883c9.509 5.763 15.765 16.055 15.765 27.809 0 1.019-0.047 2.027-0.139 3.022z" />
<glyph unicode="&#xe908;" glyph-name="home" horiz-adv-x="1141" d="M14.588 619.835l483.969 379.566c20.314 15.315 45.98 24.528 73.797 24.528s53.482-9.213 74.111-24.754l479.936-379.34c10.495-6.887 17.329-18.6 17.329-31.909 0-21.010-17.032-38.042-38.042-38.042-10.16 0-19.389 3.983-26.213 10.472l-15.43 12.284v-457.654c0-65.216-67.504-114.413-127.857-114.413h-757.989c-59.495 0-99.54 45.765-99.54 114.413v458.798l-17.162-13.444c-6.385-5.070-14.562-8.134-23.455-8.134-20.922 0-37.882 16.96-37.882 37.882 0 12.029 5.607 22.748 14.349 29.688l0.078 0.060zM457.654 154.744v-79.231h228.827v212.237c0 44.049-35.468 91.531-114.413 91.531s-114.413-47.482-114.413-91.531v-133.006z" />
<glyph unicode="&#xe909;" glyph-name="message" horiz-adv-x="1062" d="M986.19 1024h-909.717c-0.169 0.001-0.369 0.002-0.569 0.002-41.921 0-75.904-33.984-75.904-75.904 0-0.001 0-0.001 0-0.002v-644.762c0.322-41.676 34.181-75.336 75.902-75.336 0.001 0 0.001 0 0.002 0h189.619v-227.429l416.764 227.429h303.334c41.921 0 75.904 33.984 75.904 75.904 0 0 0 0 0 0v644.193c0 0.001 0 0.001 0 0.002 0 41.721-33.66 75.58-75.305 75.902zM265.524 569.142c-0.084 0-0.184-0.001-0.284-0.001-41.921 0-75.904 33.984-75.904 75.904s33.984 75.904 75.904 75.904c41.921 0 75.904-33.984 75.904-75.904 0-0.1 0-0.199-0.001-0.299-0.161-41.684-33.921-75.444-75.605-75.605zM531.047 569.142cNaNNaNsNaNNaNcNaNNaNsNaNNaNczM796.002 569.142cNaNNaNsNaNNaNcNaNNaNsNaNNaNcz" />
<glyph unicode="&#xe90a;" glyph-name="money" d="M338.489 829.156c186.88 0 338.489 43.52 338.489 97.28s-151.609 97.564-338.489 97.564-338.489-43.52-338.489-97.28 151.609-97.564 338.489-97.564zM338.489 614.969c180.907 0 328.533 39.822 337.92 89.884v0 142.222c-31.573-43.52-170.667-76.231-337.92-76.231s-310.044 34.133-338.489 78.507v-144.213c9.956-50.916 157.582-90.169 338.489-90.169zM702.293 643.413c-177.114-0.325-320.567-143.979-320.567-321.137 0-177.359 143.778-321.138 321.138-321.138 176.959 0 320.489 143.13 321.136 319.938-0.162 177.456-144.005 321.2-321.422 321.2-0.1 0-0.2 0-0.3 0zM352.142 374.044h-13.084c-170.667 0-310.044 33.564-339.058 77.938v-144.213c9.387-50.062 157.013-89.884 337.92-89.884h25.6c-9.683 30.745-15.262 66.1-15.262 102.758 0 18.443 1.412 36.557 4.134 54.238zM338.489 416.996h23.040c18.31 64.264 52.434 119.099 97.955 161.967-35.449-3.638-76.783-5.808-118.624-5.808-0.633 0-1.267 0-1.9 0.001-170.568 0-309.946 33.564-338.959 77.938v-144.213c9.956-51.769 157.582-91.022 338.489-91.022z" />
<glyph unicode="&#xe90b;" glyph-name="order" horiz-adv-x="824" d="M712.138 964.016h-65.102v59.984h-470.21v-59.984h-66.239c-61.406 0-110.587-61.406-110.587-125.37v-722.941c-0.006-0.435-0.009-0.949-0.009-1.464 0-61.707 49.15-111.934 110.437-113.668l601.71-0.004c62.192 0.797 112.302 51.4 112.302 113.706 0 0.503-0.003 1.005-0.010 1.506l0.001 732.246c0.015 0.679 0.023 1.48 0.023 2.283 0 62.311-50.118 112.917-112.242 113.705zM235.105 964.016h353.652v-90.119h-353.652v90.687zM593.59 211.509h-382.934v59.416h382.934v-59.416zM682.288 361.044h-470.778v60.269h470.778v-60.553zM682.288 512.284h-471.631v59.984h471.631v-59.984zM682.288 663.809h-206.392v59.132h206.392v-59.416z" />
<glyph unicode="&#xe90c;" glyph-name="product" horiz-adv-x="956" d="M955.336 116.048l-88.809 598.965c-8.39 42.175-45.103 73.522-89.137 73.522-0.882 0-1.762-0.013-2.638-0.038l-54.065 0.003c-5.675 152.933-113.494 235.5-244.58 235.5s-238.621-82.567-244.296-235.5h-50.505c-0.663 0.017-1.444 0.027-2.227 0.027-44.032 0-80.743-31.343-89.039-72.936l-90.040-599.544c-1.231-5.816-1.936-12.498-1.936-19.346 0-52.791 41.91-95.793 94.273-97.549l770.502-0.004c52.524 1.761 94.434 44.763 94.434 97.553 0 6.847-0.705 13.53-2.047 19.979zM476.391 947.959c92.498 0 167.687-52.207 172.511-159.459h-345.306c4.823 107.252 80.297 159.459 172.795 159.459zM255.362 556.972cNaNNaNsNaNNaNcNaNNaNzM701.109 556.972cNaNNaNsNaNNaNcNaNNaNz" />
<glyph unicode="&#xe90d;" glyph-name="search" d="M1013.432 112.54l-199.944 199.944c53.013 72.855 84.811 164.118 84.811 262.806 0 248.301-201.288 449.589-449.589 449.589s-449.589-201.288-449.589-449.589c0-248.301 201.288-449.589 449.589-449.589 98.689 0 189.951 31.798 264.1 85.707l198.651-200.84c6.524-6.582 15.568-10.657 25.564-10.657s19.040 4.075 25.562 10.655l51.131 51.131c6.412 6.495 10.372 15.424 10.372 25.278 0 9.996-4.075 19.040-10.655 25.562zM127.964 574.411c0.325 177.067 143.941 320.481 321.053 320.481 177.313 0 321.053-143.74 321.053-321.053 0-177.112-143.415-320.727-320.45-321.053-0.031 0-0.032 0-0.032 0-177.313 0-321.053 143.74-321.053 321.053 0 0.201 0 0.402 0.001 0.602z" />
<glyph unicode="&#xe90e;" glyph-name="setting" d="M984.561 583.359l-81.716 12.484c-23.087 3.547-42.078 18.312-51.465 38.454-6.133 18.293-17.766 76.742-4.714 94.617l48.802 66.678c5.416 7.69 8.656 17.252 8.656 27.57 0 12.85-5.025 24.526-13.216 33.171l-35.73 35.729c-8.623 8.171-20.299 13.196-33.149 13.196-10.319 0-19.88-3.24-27.723-8.758l-66.525-48.7c-10.829-7.847-24.381-12.553-39.032-12.553-8.507 0-16.644 1.586-24.131 4.48-16.283 8.357-66.504 41.554-69.625 63.401l-11.633 81.148c-4.082 22.235-22.963 38.976-45.888 39.721l-50.582 0.002c-23.041-0.582-42.027-17.234-46.201-39.138l-12.532-82.017c-3.91-22.63-18.582-41.147-38.452-50.331-18.295-6.133-76.745-17.766-94.62-4.714l-66.678 48.802c-7.69 5.416-17.252 8.656-27.57 8.656-12.85 0-24.526-5.025-33.171-13.216l-35.729-35.73c-8.171-8.623-13.196-20.299-13.196-33.149 0-10.319 3.24-19.88 8.758-27.723l48.7-66.525c7.826-10.85 12.517-24.414 12.517-39.074 0-8.49-1.573-16.612-4.444-24.092-8.357-16.28-41.554-66.501-63.401-69.622l-81.716-12.484c-22.326-4.103-39.114-23.129-39.722-46.185l-0.001-50.568c0.582-23.041 17.234-42.027 39.138-46.201l82.584-12.532c22.63-3.91 41.147-18.582 50.331-38.452 6.133-18.295 17.766-76.745 4.714-94.62l-48.802-65.543c-5.416-7.69-8.656-17.252-8.656-27.57 0-12.85 5.025-24.526 13.216-33.171l35.73-35.729c8.623-8.171 20.299-13.196 33.149-13.196 10.319 0 19.88 3.24 27.723 8.758l66.525 48.7c10.85 7.826 24.414 12.517 39.074 12.517 8.49 0 16.612-1.573 24.092-4.444 16.28-8.357 66.501-41.554 69.622-63.401l12.484-81.716c4.221-22.205 23.208-38.858 46.188-39.438l50.566-0.001c23.041 0.582 42.027 17.234 46.201 39.138l12.532 81.166c3.606 23.14 18.48 42.148 38.734 51.466 18.297 6.132 76.746 17.765 94.622 4.714l65.259-49.937c7.69-5.416 17.252-8.656 27.57-8.656 12.85 0 24.526 5.025 33.171 13.216l35.729 35.73c8.844 8.747 14.32 20.884 14.32 34.299 0 10.312-3.236 19.869-8.748 27.709l-48.7 66.524c-7.847 10.829-12.553 24.381-12.553 39.032 0 8.507 1.586 16.644 4.48 24.131 8.357 16.283 41.554 66.504 63.401 69.909l81.716 12.484c22.205 4.221 38.858 23.208 39.438 46.188l0.001 49.147c-0.609 23.12-17.397 42.146-39.426 46.203zM510.723 309.555c-111.395 0.646-201.449 91.098-201.449 202.584 0 111.886 90.701 202.587 202.587 202.587 111.485 0 201.938-90.054 202.583-201.387 0.002-0.4 0.003-0.8 0.003-1.2 0-111.886-90.701-202.587-202.587-202.587-0.4 0-0.8 0.001-1.2 0.003zM389.852 513.277c0.806 66.922 55.244 120.863 122.282 120.863 67.539 0 122.29-54.751 122.29-122.29s-54.751-122.29-122.29-122.29c-0.496 0-0.991 0.003-1.486 0.009-66.854 0.796-120.804 55.238-120.804 122.281 0 0.502 0.003 1.003 0.009 1.503z" />
<glyph unicode="&#xe90f;" glyph-name="preview" horiz-adv-x="1531" d="M805.488 904.031c-392.154 0-653.508-392.154-653.508-392.154s261.353-392.154 653.508-392.154 653.508 392.154 653.508 392.154-261.591 392.154-653.508 392.154v0zM805.488 253.359c-143.695 0-260.17 116.489-260.17 260.17s116.489 260.17 260.17 260.17c143.695 0 260.17-116.489 260.17-260.17s-116.489-260.17-260.17-260.17v0zM674.692 513.543c0.025-71.831 58.259-130.043 130.084-130.043 71.84 0 130.084 58.244 130.084 130.084s-58.244 130.084-130.084 130.084c-35.934 0-68.459-14.572-92.006-38.118-23.26-23.743-37.612-56.278-37.612-92.172 0-0.192 0.001-0.384 0.002-0.576v0.025z" />
<glyph unicode="&#xe910;" glyph-name="message1" horiz-adv-x="1062" d="M986.19 1024h-909.717c-0.169 0.001-0.369 0.002-0.569 0.002-41.921 0-75.904-33.984-75.904-75.904 0-0.001 0-0.001 0-0.002v-644.762c0.322-41.676 34.181-75.336 75.902-75.336 0.001 0 0.001 0 0.002 0h189.619v-227.429l416.764 227.429h303.334c41.921 0 75.904 33.984 75.904 75.904 0 0 0 0 0 0v644.193c0 0.001 0 0.001 0 0.002 0 41.721-33.66 75.58-75.305 75.902zM265.524 569.142c-0.084 0-0.184-0.001-0.284-0.001-41.921 0-75.904 33.984-75.904 75.904s33.984 75.904 75.904 75.904c41.921 0 75.904-33.984 75.904-75.904 0-0.1 0-0.199-0.001-0.299-0.161-41.684-33.921-75.444-75.605-75.605zM531.047 569.142c0 0 0 0 0 0-41.921 0-75.904 33.984-75.904 75.904s33.984 75.904 75.904 75.904c41.921 0 75.904-33.984 75.904-75.904s-33.984-75.904-75.904-75.904zM796.002 569.142c0 0 0 0 0 0-41.921 0-75.904 33.984-75.904 75.904s33.984 75.904 75.904 75.904c41.921 0 75.904-33.984 75.904-75.904s-33.984-75.904-75.904-75.904z" />
<glyph unicode="&#xe911;" glyph-name="bubbles" horiz-adv-x="1152" d="M1088 122.834c0-45.5 26.028-84.908 64-104.184v-15.938c-10.626-1.454-21.472-2.224-32.5-2.224-68.008 0-129.348 28.528-172.722 74.264-26.222-6.982-54.002-10.752-82.778-10.752-159.058 0-288 114.616-288 256s128.942 256 288 256c159.058 0 288-114.616 288-256 0-55.348-19.764-106.592-53.356-148.466-6.824-14.824-10.644-31.312-10.644-48.7zM512 1024c278.458 0 504.992-180.614 511.836-405.52-49.182 21.92-103.586 33.52-159.836 33.52-95.56 0-185.816-33.446-254.138-94.178-70.846-62.972-109.862-147.434-109.862-237.822 0-44.672 9.544-87.888 27.736-127.788-5.228-0.126-10.468-0.212-15.736-0.212-27.156 0-53.81 1.734-79.824 5.044-109.978-109.978-241.25-129.7-368.176-132.596v26.916c68.536 33.578 128 94.74 128 164.636 0 9.754-0.758 19.33-2.164 28.696-115.796 76.264-189.836 192.754-189.836 323.304 0 229.75 229.23 416 512 416z" />
<glyph unicode="&#xe912;" glyph-name="bubbles2" horiz-adv-x="1152" d="M1088 122.834c0-45.5 26.028-84.908 64-104.184v-15.938c-10.626-1.454-21.472-2.224-32.5-2.224-68.008 0-129.348 28.528-172.722 74.264-26.222-6.982-54.002-10.752-82.778-10.752-159.058 0-288 114.616-288 256s128.942 256 288 256c159.058 0 288-114.616 288-256 0-55.348-19.764-106.592-53.356-148.466-6.824-14.824-10.644-31.312-10.644-48.7zM512 1024c278.458 0 504.992-180.614 511.836-405.52-49.182 21.92-103.586 33.52-159.836 33.52-95.56 0-185.816-33.446-254.138-94.178-70.846-62.972-109.862-147.434-109.862-237.822 0-44.672 9.544-87.888 27.736-127.788-5.228-0.126-10.468-0.212-15.736-0.212-27.156 0-53.81 1.734-79.824 5.044-109.978-109.978-241.25-129.7-368.176-132.596v26.916c68.536 33.578 128 94.74 128 164.636 0 9.754-0.758 19.33-2.164 28.696-115.796 76.264-189.836 192.754-189.836 323.304 0 229.75 229.23 416 512 416z" />
<glyph unicode="&#xe913;" glyph-name="shop-1" d="M846.952 407.727c-50.841 0-94.444 30.894-112.254 74.514-17.609-43.62-60.748-74.514-111.047-74.514s-93.446 30.894-111.055 74.514c-17.805-43.62-61.409-74.514-112.245-74.514-50.3 0-93.446 30.894-111.059 74.514-17.8-43.62-61.405-74.514-112.241-74.514-11.979 0-23.534 1.798-34.454 5.057v-247.025c0-22.966 25.521-51.036 48.487-51.036h641.835c22.964 0 48.485 28.070 48.485 51.036v246.932c-10.929-3.191-22.477-4.964-34.452-4.964zM879.49 798.716h-737.532l-76.562-200.336c0-59.974 49.766-109.734 111.015-109.734 61.244 0 112.285 48.486 112.285 109.734 0-59.974 49.766-109.734 111.015-109.734s112.285 48.486 112.285 109.734c0-59.974 49.766-109.734 111.015-109.734s111.010 48.486 111.010 109.734c0-59.974 49.766-109.734 112.291-109.734 61.248 0 112.29 48.486 112.29 109.734l-79.116 200.336zM843.758 799.991v0 0zM192.995 832.715h638.004c21.696 0 38.284 16.588 38.284 38.283 0 21.691-16.588 38.279-38.284 38.279h-638.004c-21.69 0-38.278-16.588-38.278-38.279 0-21.695 16.589-38.283 38.278-38.283v0z" />
<glyph unicode="&#xf02e;" glyph-name="bookmark" horiz-adv-x="731" d="M665.143 950.857q13.143 0 25.143-5.143 18.857-7.429 30-23.429t11.143-35.429v-736.571q0-19.429-11.143-35.429t-30-23.429q-10.857-4.571-25.143-4.571-27.429 0-47.429 18.286l-252 242.286-252-242.286q-20.571-18.857-47.429-18.857-13.143 0-25.143 5.143-18.857 7.429-30 23.429t-11.143 35.429v736.571q0 19.429 11.143 35.429t30 23.429q12 5.143 25.143 5.143h598.857z" />
<glyph unicode="&#xf29c;" glyph-name="ion-load-c" d="M898 510c0-6 0-12-2-18-8-16-30-24-46-14-8 4-12 14-14 22-2 10-2 18-4 28-8 40-24 80-44 116-24 42-56 82-94 112-36 30-80 52-124 66-42 12-84 18-128 18h-8c-6 0-12-2-18-2-12 0-28-2-40-4-26-4-50-12-74-22-42-16-80-40-114-70s-62-66-84-104c-24-44-40-90-48-140-4-22-4-46-4-68 0-12 0-22 2-32 2-12 4-26 6-38 10-48 28-94 56-134 26-40 58-76 96-104 40-30 84-52 130-66 50-14 100-18 152-14 50 4 100 18 146 40 22 10 44 24 64 38s38 30 54 48c8 8 16 18 24 28s14 20 20 30 24 40 34 62c8 16 16 32 22 50 4 8 6 18 8 26s2 14 4 22c2-18 2-36-2-52-2-10-4-22-8-32-2-10-6-20-10-30-8-20-16-38-26-56-12-22-24-42-40-60s-32-36-50-52c-36-30-80-54-124-72-46-18-96-28-146-30s-102 6-150 22c-46 14-90 38-130 66-38 28-72 62-100 100-14 20-26 40-36 62s-18 42-26 66c-12 36-18 74-20 112-2 40 2 78 10 116 10 48 30 94 56 136 24 38 52 70 84 100s70 54 110 72c46 22 96 38 148 42 20 2 38 2 58 2 26 0 52-4 76-8 48-10 94-28 136-52s82-58 114-96c30-36 54-74 72-116 8-20 14-42 20-64 4-16 10-34 12-52z" />
</font>
</defs>
</svg>
